<svg width="32" height="32" viewBox="0 0 32 32" fill="none" xmlns="http://www.w3.org/2000/svg">
<rect width="32" height="32" rx="5" fill="#333332"/>
<path d="M7 8C7 7.44772 7.44772 7 8 7H18.7639C19.8192 7 20.155 8.42252 19.2111 8.89443L12.6315 12.1843C12.4379 12.281 12.281 12.4379 12.1843 12.6315L8.89443 19.2111C8.42252 20.155 7 19.8192 7 18.7639V8Z" fill="white"/>
<path d="M25 24C25 24.5523 24.5523 25 24 25H13.2361C12.1808 25 11.845 23.5775 12.7889 23.1056L19.3685 19.8157C19.5621 19.719 19.719 19.5621 19.8157 19.3685L23.1056 12.7889C23.5775 11.845 25 12.1808 25 13.2361V24Z" fill="#7D7D7D"/>
</svg>
